HIERARCHY
ROOT Hips
{
	OFFSET 0.000000 0.000000 0.000000
	CHANNELS 6 Xposition Yposition Zposition Zrotation Yrotation Xrotation 
	JOINT LHipJoint
	{
		OFFSET 0.000000 0.000000 0.000000
		CHANNELS 3 Zrotation Yrotation Xrotation
		JOINT LeftUpLeg
		{
			OFFSET 1.363060 -1.794630 0.839290
			CHANNELS 3 Zrotation Yrotation Xrotation
			JOINT LeftLeg
			{
				OFFSET 2.448110 -6.726130 0.000000
				CHANNELS 3 Zrotation Yrotation Xrotation
				JOINT LeftFoot
				{
					OFFSET 2.562200 -7.039590 0.000000
					CHANNELS 3 Zrotation Yrotation Xrotation
					JOINT LeftToeBase
					{
						OFFSET 0.157640 -0.433110 2.322550
						CHANNELS 3 Zrotation Yrotation Xrotation
						End Site
						{
							OFFSET 0.000000 0.000000 0.000000
						}
					}
				}
			}
		}
	}
	JOINT RHipJoint
	{
		OFFSET 0.000000 0.000000 0.000000
		CHANNELS 3 Zrotation Yrotation Xrotation
		JOINT RightUpLeg
		{
			OFFSET -1.305520 -1.794630 0.839290
			CHANNELS 3 Zrotation Yrotation Xrotation
			JOINT RightLeg
			{
				OFFSET -2.542530 -6.985550 0.000000
				CHANNELS 3 Zrotation Yrotation Xrotation
				JOINT RightFoot
				{
					OFFSET -2.568260 -7.056230 0.000000
					CHANNELS 3 Zrotation Yrotation Xrotation
					JOINT RightToeBase
					{
						OFFSET -0.164730 -0.452590 2.363150
						CHANNELS 3 Zrotation Yrotation Xrotation
						End Site
						{
							OFFSET 0.000000 0.000000 0.000000
						}
					}
				}
			}
		}
	}
	JOINT LowerBack
	{
		OFFSET 0.000000 0.000000 0.000000
		CHANNELS 3 Zrotation Yrotation Xrotation
		JOINT Spine
		{
			OFFSET 0.028270 2.035590 -0.193380
			CHANNELS 3 Zrotation Yrotation Xrotation
			JOINT Spine1
			{
				OFFSET 0.056720 2.048850 -0.042750
				CHANNELS 3 Zrotation Yrotation Xrotation
				JOINT Neck
				{
					OFFSET 0.000000 0.000000 0.000000
					CHANNELS 3 Zrotation Yrotation Xrotation
					JOINT Neck1
					{
						OFFSET -0.054170 1.746240 0.172020
						CHANNELS 3 Zrotation Yrotation Xrotation
						JOINT Head
						{
							OFFSET 0.104070 1.761360 -0.123970
							CHANNELS 3 Zrotation Yrotation Xrotation
							End Site
							{
								OFFSET 0.000000 0.000000 0.000000
							}
						}
					}
				}
				JOINT LeftShoulder
				{
					OFFSET 0.000000 0.000000 0.000000
					CHANNELS 3 Zrotation Yrotation Xrotation
					JOINT LeftArm
					{
						OFFSET 3.362410 1.200890 -0.311210
						CHANNELS 3 Zrotation Yrotation Xrotation
						JOINT LeftForeArm
						{
							OFFSET 4.983000 -0.000000 -0.000000
							CHANNELS 3 Zrotation Yrotation Xrotation
							JOINT LeftHand
							{
								OFFSET 3.483560 -0.000000 -0.000000
								CHANNELS 3 Zrotation Yrotation Xrotation
								JOINT LeftFingerBase
								{
									OFFSET 0.000000 0.000000 0.000000
									CHANNELS 3 Zrotation Yrotation Xrotation
									JOINT LeftHandIndex1
									{
										OFFSET 0.715260 -0.000000 -0.000000
										CHANNELS 3 Zrotation Yrotation Xrotation
										End Site
										{
											OFFSET 0.000000 0.000000 0.000000
										}
									}
								}
								JOINT LThumb
								{
									OFFSET 0.000000 0.000000 0.000000
									CHANNELS 3 Zrotation Yrotation Xrotation
									End Site
									{
										OFFSET 0.000000 0.000000 0.000000
									}
								}
							}
						}
					}
				}
				JOINT RightShoulder
				{
					OFFSET 0.000000 0.000000 0.000000
					CHANNELS 3 Zrotation Yrotation Xrotation
					JOINT RightArm
					{
						OFFSET -3.136600 1.374050 -0.404650
						CHANNELS 3 Zrotation Yrotation Xrotation
						JOINT RightForeArm
						{
							OFFSET -5.241900 -0.000000 -0.000000
							CHANNELS 3 Zrotation Yrotation Xrotation
							JOINT RightHand
							{
								OFFSET -3.444170 -0.000000 -0.000000
								CHANNELS 3 Zrotation Yrotation Xrotation
								JOINT RightFingerBase
								{
									OFFSET 0.000000 0.000000 0.000000
									CHANNELS 3 Zrotation Yrotation Xrotation
									JOINT RightHandIndex1
									{
										OFFSET -0.622530 -0.000000 -0.000000
										CHANNELS 3 Zrotation Yrotation Xrotation
										End Site
										{
											OFFSET 0.000000 0.000000 0.000000
										}
									}
								}
								JOINT RThumb
								{
									OFFSET 0.000000 0.000000 0.000000
									CHANNELS 3 Zrotation Yrotation Xrotation
									End Site
									{
										OFFSET 0.000000 0.000000 0.000000
									}
								}
							}
						}
					}
				}
			}
		}
	}
}
MOTION
Frames: 12
Frame Time: 0.008333
-0.219025 18.327534 4.779990 -1.005560 -11.737800 8.592024 2.311648 4.159425 4.154486 -15.685005 -5.086866 -20.713484 1.956877 8.833532 28.519179 -0.841336 7.482339 -13.790436 8.227300 -16.283900 -53.377500 -3.204230 -4.132269 3.981870 13.080593 18.392205 -9.991966 -0.122263 -1.713447 8.342634 0.813439 -8.211488 -11.466954 -0.272000 3.354900 -9.268400 -0.387056 2.223441 15.465575 5.757164 0.482933 39.678467 -2.357416 2.017860 -22.830224 -8.460481 -9.056441 -25.047191 9.881842 -11.990045 20.040265 1.981900 -5.016000 8.947600 4.019296 -4.416870 -0.987072 -71.386804 -14.134945 67.788414 120.303058 -52.620113 -84.763883 -0.493539 0.646519 -41.628260 20.502453 -4.037222 -1.826400 -7.125000 0.000000 0.000000 -4.656800 24.745100 2.287200 -7.031667 5.661360 -1.087944 77.990973 26.187824 40.443988 -108.272294 52.617296 -70.529189 0.151159 0.660025 -69.241402 -8.722831 -68.601090 8.743300 7.125000 0.000000 0.000000 108.078700 73.609200 124.960300 
-0.216285 18.333308 4.768637 -0.791803 -11.280191 8.568963 2.327543 4.160351 4.165273 -15.877187 -5.370279 -20.658641 1.925517 8.765174 28.318581 -0.841114 7.409687 -13.563001 8.262600 -16.309000 -53.503100 -3.180517 -4.145383 3.984427 12.892085 17.882073 -10.007635 -0.108532 -1.638940 8.138270 0.815106 -8.201395 -11.425361 -0.245700 3.189400 -8.806600 -0.291208 2.462765 15.357123 6.208150 0.651468 39.723094 -2.516060 2.140733 -22.772919 -9.329342 -9.589485 -24.503278 10.577238 -12.683840 19.608660 2.201100 -5.344500 8.880700 3.934616 -4.342834 -1.049708 -71.329316 -14.686167 68.711197 120.262865 -52.629474 -84.714368 -0.492899 0.643951 -42.122545 20.559518 -4.120862 -1.861600 -7.125000 0.000000 0.000000 -4.617200 24.657100 2.277000 -6.940609 5.464798 -1.028344 76.166611 27.991780 37.609691 -104.038946 53.602822 -66.178509 0.370136 0.654110 -69.665013 -14.581495 -69.077930 14.299400 7.125000 0.000000 0.000000 113.507000 74.521400 128.910800 
-0.214425 18.339376 4.758459 -0.499570 -10.707599 8.557399 2.325656 4.172672 4.183632 -16.122361 -5.696014 -20.623752 1.889138 8.694500 28.089466 -0.826019 7.263885 -13.289586 8.267800 -16.312700 -53.521600 -3.172954 -4.145726 3.967866 12.671911 17.224224 -10.064050 -0.099426 -1.579042 7.988988 0.813802 -8.178934 -11.408090 -0.227200 3.068300 -8.469000 0.013528 2.612402 15.217744 6.388743 0.841639 39.824737 -2.718170 2.217401 -22.588465 -10.049041 -10.156345 -24.160069 11.274652 -13.449913 19.214453 2.383500 -5.692300 8.868400 3.878359 -4.277662 -1.112709 -71.324826 -15.532681 69.704738 119.970377 -52.703904 -84.426022 -0.494742 0.645869 -42.379902 20.693935 -4.289460 -1.939000 -7.125000 0.000000 0.000000 -4.517000 24.469400 2.247000 -6.815194 5.249386 -0.959455 74.503565 29.832318 34.599674 -99.049497 54.745800 -61.086869 0.596634 0.645552 -69.687936 -15.709977 -69.433346 15.434300 7.125000 0.000000 0.000000 114.801900 74.665700 129.919200 
-0.214719 18.345346 4.748574 -0.205403 -10.065461 8.583735 2.320293 4.188932 4.203037 -16.355017 -6.082686 -20.604425 1.847405 8.622204 27.842381 -0.814532 7.143709 -13.042298 8.261900 -16.308500 -53.500600 -3.169191 -4.139245 3.944670 12.466793 16.509117 -10.191525 -0.096120 -1.549318 7.925818 0.812364 -8.165875 -11.414227 -0.221500 3.029300 -8.360400 0.426959 2.705262 15.115228 6.488648 1.012643 39.928789 -2.951272 2.260475 -22.391663 -10.585465 -10.689953 -23.923854 11.829093 -14.176382 18.830587 2.506800 -6.023900 8.863300 3.831124 -4.219118 -1.173318 -71.485496 -16.502531 70.678104 119.477662 -52.831176 -83.940048 -0.497853 0.653246 -42.476621 20.752008 -4.379276 -1.981500 -7.125000 0.000000 0.000000 -4.475400 24.362900 2.237200 -6.697906 5.042694 -0.892689 73.049037 31.501762 31.591347 -93.803881 55.883352 -55.918699 0.795724 0.616880 -69.951290 -16.140526 -69.774879 15.890400 7.125000 0.000000 0.000000 115.485500 74.686600 130.509300 
-0.218731 18.350337 4.734384 -0.003115 -9.407603 8.623849 2.336880 4.200828 4.211983 -16.505434 -6.407267 -20.609306 1.808240 8.544717 27.588462 -0.800669 6.989093 -12.717575 8.273600 -16.316900 -53.542300 -3.148312 -4.135316 3.929469 12.350741 15.833562 -10.371562 -0.098953 -1.558319 7.956752 0.812348 -8.166400 -11.422348 -0.231100 3.094300 -8.541500 0.818151 2.797842 15.153805 6.845080 1.105649 39.998194 -3.226080 2.294721 -22.227257 -11.280314 -11.194498 -23.673029 12.472211 -14.824525 18.342225 2.680500 -6.324700 8.844000 3.770776 -4.173505 -1.233483 -71.933518 -17.506739 71.621697 118.893493 -52.979992 -83.359954 -0.503184 0.660990 -42.483036 21.103442 -4.548018 -2.087400 -7.125000 0.000000 0.000000 -4.212700 24.156600 2.125300 -6.625402 4.862518 -0.838154 71.712721 32.900191 28.892257 -88.762739 56.812089 -51.224162 0.943881 0.560992 -70.434482 -16.171429 -70.386881 15.961000 7.125000 0.000000 0.000000 116.606600 74.457700 131.756700 
-0.225680 18.353371 4.717551 0.122444 -8.743735 8.695188 2.362616 4.214110 4.215652 -16.565919 -6.678739 -20.677834 1.772063 8.469425 27.334472 -0.777158 6.768691 -12.307445 8.301300 -16.336400 -53.640700 -3.122666 -4.126107 3.913256 12.324667 15.188628 -10.603503 -0.108012 -1.596280 8.066021 0.801541 -8.109090 -11.443172 -0.233300 3.109000 -8.582400 1.306058 2.861142 15.283462 7.285785 1.167288 40.046076 -3.582088 2.310184 -22.055059 -12.176743 -11.728312 -23.472835 13.353971 -15.489455 17.807688 2.930400 -6.621800 8.858900 3.720256 -4.159440 -1.287436 -72.543369 -18.545943 72.533836 118.352230 -53.112349 -82.819096 -0.510512 0.666060 -42.621908 21.858859 -4.921859 -2.324000 -7.125000 0.000000 0.000000 -3.649800 23.709900 1.877800 -6.573523 4.705555 -0.803931 70.479974 33.981192 26.743860 -84.279686 57.417494 -47.282444 1.046650 0.481425 -70.915882 -16.190592 -71.329635 16.019200 7.125000 0.000000 0.000000 118.580000 73.994100 133.993500 
-0.231845 18.355328 4.703262 0.279889 -8.010707 8.848936 2.389889 4.224409 4.219885 -16.637346 -7.040726 -20.816525 1.735585 8.395768 27.077238 -0.744425 6.508931 -11.889080 8.320800 -16.350200 -53.710000 -3.095193 -4.115942 3.898420 12.273447 14.488073 -10.930186 -0.118552 -1.643080 8.196054 0.779994 -8.008594 -11.516140 -0.236000 3.126800 -8.632000 1.827881 2.845010 15.334912 7.671535 1.156085 40.084151 -3.924154 2.278238 -21.857642 -12.935483 -12.195054 -23.227865 14.177146 -16.061054 17.152229 3.162100 -6.883600 8.828500 3.689672 -4.170811 -1.337391 -73.265682 -19.450536 73.239751 117.961046 -53.206832 -82.411259 -0.516576 0.674119 -43.015174 22.175197 -5.085318 -2.431500 -7.125000 0.000000 0.000000 -3.420700 23.506600 1.775500 -6.539505 4.583688 -0.789303 69.298681 34.703757 25.380304 -80.655896 57.712895 -44.211051 1.122135 0.400319 -71.355751 -16.809847 -72.084899 16.616900 7.125000 0.000000 0.000000 120.592300 73.666900 136.084200 
-0.239185 18.358753 4.694161 0.479253 -7.410932 9.033151 2.409391 4.230986 4.222465 -16.766103 -7.259424 -20.970199 1.697569 8.314914 26.804320 -0.703910 6.217797 -11.479772 8.326700 -16.354300 -53.730900 -3.073561 -4.108095 3.891333 12.166563 13.937963 -11.310467 -0.133852 -1.719182 8.399435 0.745132 -7.869753 -11.688800 -0.252900 3.235600 -8.935400 2.260288 2.854462 15.314771 7.985899 1.167199 40.138108 -4.188544 2.269725 -21.655547 -13.493821 -12.582895 -22.974356 14.815190 -16.527661 16.481674 3.339700 -7.107800 8.768800 3.668873 -4.191736 -1.384099 -74.110294 -20.252483 73.816969 117.715949 -53.269026 -82.125619 -0.520050 0.685389 -43.519087 21.835733 -4.589057 -2.195600 -7.125000 0.000000 0.000000 -3.681600 24.046000 1.865700 -6.530318 4.503945 -0.789129 68.048378 35.086145 24.708869 -78.076571 57.797475 -42.082989 1.159400 0.334544 -72.009157 -17.757011 -72.912958 17.536000 7.125000 0.000000 0.000000 122.996300 73.273600 138.540100 
-0.250440 18.363549 4.685353 0.771310 -6.990763 9.188455 2.407746 4.235867 4.225240 -16.989137 -7.425927 -21.047575 1.650116 8.222974 26.500177 -0.686874 6.058204 -11.166532 8.350400 -16.371000 -53.815100 -3.070705 -4.100435 3.885040 11.953283 13.562764 -11.719809 -0.157350 -1.831552 8.698453 0.701127 -7.686733 -11.879072 -0.259500 3.277100 -9.051300 2.577674 2.897511 15.376901 8.076750 1.255292 40.207613 -4.352968 2.295731 -21.539786 -13.902589 -12.936138 -22.880911 15.394076 -16.972609 15.993207 3.484900 -7.308500 8.766700 3.669650 -4.211860 -1.421776 -74.984364 -21.014555 74.365489 117.577921 -53.308673 -81.942093 -0.523534 0.692600 -43.891710 21.621056 -3.796673 -1.862300 -7.125000 0.000000 0.000000 -3.852300 24.897600 1.876500 -6.514738 4.453376 -0.800164 66.836732 35.234722 24.491844 -76.606836 57.790209 -40.897755 1.151735 0.277325 -73.060174 -20.200966 -73.998733 19.909400 7.125000 0.000000 0.000000 126.951300 72.748300 142.345900 
-0.264435 18.366485 4.671554 1.179010 -6.519447 9.309491 2.402479 4.234430 4.226622 -17.313153 -7.742887 -21.050450 1.595796 8.120242 26.169528 -0.694881 6.018631 -10.882406 8.403600 -16.408200 -54.003700 -3.070899 -4.098692 3.880426 11.618063 13.142248 -12.185006 -0.187898 -1.975754 9.076512 0.663148 -7.526086 -12.025067 -0.250500 3.220300 -8.892600 2.756880 2.895305 15.574195 8.071445 1.289819 40.270496 -4.412027 2.297565 -21.522552 -14.155370 -13.235422 -22.831266 15.922689 -17.359350 15.494133 3.609500 -7.481100 8.750600 3.684768 -4.223895 -1.455852 -75.912384 -21.716379 74.796451 117.492922 -53.337599 -81.823910 -0.529408 0.695674 -44.339725 21.922228 -3.573328 -1.804700 -7.125000 0.000000 0.000000 -3.631600 25.118500 1.749900 -6.498022 4.424243 -0.818226 65.820125 35.258758 24.429368 -76.251774 57.764727 -40.609571 1.123012 0.250950 -74.145158 -22.857037 -74.633373 22.482900 7.125000 0.000000 0.000000 130.066400 72.428800 145.156800 
-0.280974 18.369519 4.666465 1.451185 -6.324841 9.424654 2.392596 4.238062 4.226393 -17.518018 -7.709958 -21.061977 1.543853 8.010076 25.824848 -0.676564 5.855933 -10.582172 8.424900 -16.423100 -54.079200 -3.078992 -4.094282 3.882461 11.398751 13.023156 -12.593334 -0.222460 -2.134813 9.497639 0.633643 -7.398817 -12.123823 -0.255400 3.251700 -8.980300 2.920002 2.973011 15.699520 8.077959 1.402422 40.400518 -4.454999 2.356708 -21.409671 -14.252111 -13.491831 -22.665054 16.341206 -17.676776 14.795542 3.702400 -7.638900 8.654200 3.691856 -4.233448 -1.490481 -76.917811 -22.501092 75.132599 117.324503 -53.383441 -81.635937 -0.537125 0.699383 -45.222376 22.466101 -4.006990 -2.035700 -7.125000 0.000000 0.000000 -3.229500 24.620600 1.592900 -6.509028 4.422930 -0.861598 64.930140 35.278271 24.230023 -76.702043 57.742876 -40.894596 1.283883 -0.591701 -74.656987 -72.705754 -75.110544 71.708300 7.125000 0.000000 0.000000 164.015100 65.238000 172.087500 
-0.299569 18.374119 4.649436 1.664324 -5.944767 9.498981 2.391124 4.243700 4.230522 -17.612376 -7.994407 -20.991115 1.489589 7.901653 25.482396 -0.672533 5.780129 -10.356608 8.396500 -16.403300 -53.978700 -3.079118 -4.089073 3.880011 11.289748 12.725487 -12.969062 -0.257013 -2.284160 9.902183 0.610548 -7.288748 -12.180516 -0.270500 3.345600 -9.242400 3.200409 2.968837 16.032581 8.137652 1.438362 40.488724 -4.564464 2.357871 -21.422789 -14.408035 -13.749084 -22.324557 16.888954 -17.993371 14.045379 3.840900 -7.798900 8.537000 3.688061 -4.250813 -1.521849 -77.946351 -23.538588 75.313356 117.078335 -53.446463 -81.372447 -0.544323 0.703273 -45.783103 23.080317 -3.912413 -2.062500 -7.125000 0.000000 0.000000 -2.774400 24.686400 1.363600 -6.499851 4.425907 -0.902371 63.963361 35.360901 24.574754 -75.354967 57.315923 -41.054454 1.629510 0.272456 -74.147101 -93.983305 64.537647 -95.150200 7.125000 0.000000 0.000000 176.218300 57.949000 178.800500 
